<mxfile host="65bd71144e">
    <diagram id="xFwx3jJbslrR0_GZQnUf" name="Page-1">
        <mxGraphModel dx="668" dy="365" grid="1" gridSize="10" guides="1" tooltips="1" connect="1" arrows="1" fold="1" page="1" pageScale="1" pageWidth="850" pageHeight="1100" math="0" shadow="0">
            <root>
                <mxCell id="0"/>
                <mxCell id="1" parent="0"/>
                <mxCell id="1437" value="" style="shape=cube;whiteSpace=wrap;html=1;boundedLbl=1;backgroundOutline=1;darkOpacity=0.05;darkOpacity2=0.1;size=10;" vertex="1" parent="1">
                    <mxGeometry x="185" y="110" width="30" height="30" as="geometry"/>
                </mxCell>
                <mxCell id="1438" value="" style="shape=cube;whiteSpace=wrap;html=1;boundedLbl=1;backgroundOutline=1;darkOpacity=0.05;darkOpacity2=0.1;size=10;" vertex="1" parent="1">
                    <mxGeometry x="195" y="120" width="30" height="30" as="geometry"/>
                </mxCell>
                <mxCell id="1439" value="" style="shape=cube;whiteSpace=wrap;html=1;boundedLbl=1;backgroundOutline=1;darkOpacity=0.05;darkOpacity2=0.1;size=10;" vertex="1" parent="1">
                    <mxGeometry x="205" y="130" width="30" height="30" as="geometry"/>
                </mxCell>
                <mxCell id="1440" value="" style="shape=cube;whiteSpace=wrap;html=1;boundedLbl=1;backgroundOutline=1;darkOpacity=0.05;darkOpacity2=0.1;size=10;" vertex="1" parent="1">
                    <mxGeometry x="215" y="140" width="30" height="30" as="geometry"/>
                </mxCell>
                <mxCell id="1433" value="" style="shape=cube;whiteSpace=wrap;html=1;boundedLbl=1;backgroundOutline=1;darkOpacity=0.05;darkOpacity2=0.1;size=10;" vertex="1" parent="1">
                    <mxGeometry x="185" y="90" width="30" height="30" as="geometry"/>
                </mxCell>
                <mxCell id="1434" value="" style="shape=cube;whiteSpace=wrap;html=1;boundedLbl=1;backgroundOutline=1;darkOpacity=0.05;darkOpacity2=0.1;size=10;" vertex="1" parent="1">
                    <mxGeometry x="195" y="100" width="30" height="30" as="geometry"/>
                </mxCell>
                <mxCell id="1435" value="" style="shape=cube;whiteSpace=wrap;html=1;boundedLbl=1;backgroundOutline=1;darkOpacity=0.05;darkOpacity2=0.1;size=10;" vertex="1" parent="1">
                    <mxGeometry x="205" y="110" width="30" height="30" as="geometry"/>
                </mxCell>
                <mxCell id="1436" value="" style="shape=cube;whiteSpace=wrap;html=1;boundedLbl=1;backgroundOutline=1;darkOpacity=0.05;darkOpacity2=0.1;size=10;" vertex="1" parent="1">
                    <mxGeometry x="215" y="120" width="30" height="30" as="geometry"/>
                </mxCell>
                <mxCell id="1429" value="" style="shape=cube;whiteSpace=wrap;html=1;boundedLbl=1;backgroundOutline=1;darkOpacity=0.05;darkOpacity2=0.1;size=10;" vertex="1" parent="1">
                    <mxGeometry x="165" y="110" width="30" height="30" as="geometry"/>
                </mxCell>
                <mxCell id="1430" value="" style="shape=cube;whiteSpace=wrap;html=1;boundedLbl=1;backgroundOutline=1;darkOpacity=0.05;darkOpacity2=0.1;size=10;" vertex="1" parent="1">
                    <mxGeometry x="175" y="120" width="30" height="30" as="geometry"/>
                </mxCell>
                <mxCell id="1431" value="" style="shape=cube;whiteSpace=wrap;html=1;boundedLbl=1;backgroundOutline=1;darkOpacity=0.05;darkOpacity2=0.1;size=10;" vertex="1" parent="1">
                    <mxGeometry x="185" y="130" width="30" height="30" as="geometry"/>
                </mxCell>
                <mxCell id="1432" value="" style="shape=cube;whiteSpace=wrap;html=1;boundedLbl=1;backgroundOutline=1;darkOpacity=0.05;darkOpacity2=0.1;size=10;" vertex="1" parent="1">
                    <mxGeometry x="195" y="140" width="30" height="30" as="geometry"/>
                </mxCell>
                <object label="" placeholders="1" id="1371">
                    <mxCell style="shape=table;html=1;whiteSpace=wrap;startSize=0;container=1;collapsible=0;childLayout=tableLayout;fontStyle=1" vertex="1" parent="1">
                        <mxGeometry x="350" y="90" width="50" height="100" as="geometry"/>
                    </mxCell>
                </object>
                <mxCell id="1372" value="" style="shape=partialRectangle;html=1;whiteSpace=wrap;collapsible=0;dropTarget=0;pointerEvents=0;fillColor=none;top=0;left=0;bottom=0;right=0;points=[[0,0.5],[1,0.5]];portConstraint=eastwest;fontStyle=1" vertex="1" parent="1371">
                    <mxGeometry width="50" height="25" as="geometry"/>
                </mxCell>
                <mxCell id="1373" value="" style="shape=partialRectangle;html=1;whiteSpace=wrap;connectable=0;fillColor=none;top=0;left=0;bottom=0;right=0;overflow=hidden;pointerEvents=1;fontStyle=1" vertex="1" parent="1372">
                    <mxGeometry width="25" height="25" as="geometry">
                        <mxRectangle width="25" height="25" as="alternateBounds"/>
                    </mxGeometry>
                </mxCell>
                <mxCell id="1374" value="" style="shape=partialRectangle;html=1;whiteSpace=wrap;connectable=0;fillColor=none;top=0;left=0;bottom=0;right=0;overflow=hidden;pointerEvents=1;fontStyle=1" vertex="1" parent="1372">
                    <mxGeometry x="25" width="25" height="25" as="geometry">
                        <mxRectangle width="25" height="25" as="alternateBounds"/>
                    </mxGeometry>
                </mxCell>
                <mxCell id="1376" value="" style="shape=partialRectangle;html=1;whiteSpace=wrap;collapsible=0;dropTarget=0;pointerEvents=0;fillColor=none;top=0;left=0;bottom=0;right=0;points=[[0,0.5],[1,0.5]];portConstraint=eastwest;fontStyle=1" vertex="1" parent="1371">
                    <mxGeometry y="25" width="50" height="25" as="geometry"/>
                </mxCell>
                <mxCell id="1377" value="" style="shape=partialRectangle;html=1;whiteSpace=wrap;connectable=0;fillColor=none;top=0;left=0;bottom=0;right=0;overflow=hidden;pointerEvents=1;fontStyle=1" vertex="1" parent="1376">
                    <mxGeometry width="25" height="25" as="geometry">
                        <mxRectangle width="25" height="25" as="alternateBounds"/>
                    </mxGeometry>
                </mxCell>
                <mxCell id="1378" value="" style="shape=partialRectangle;html=1;whiteSpace=wrap;connectable=0;fillColor=none;top=0;left=0;bottom=0;right=0;overflow=hidden;pointerEvents=1;fontStyle=1" vertex="1" parent="1376">
                    <mxGeometry x="25" width="25" height="25" as="geometry">
                        <mxRectangle width="25" height="25" as="alternateBounds"/>
                    </mxGeometry>
                </mxCell>
                <mxCell id="1380" value="" style="shape=partialRectangle;html=1;whiteSpace=wrap;collapsible=0;dropTarget=0;pointerEvents=0;fillColor=none;top=0;left=0;bottom=0;right=0;points=[[0,0.5],[1,0.5]];portConstraint=eastwest;fontStyle=1" vertex="1" parent="1371">
                    <mxGeometry y="50" width="50" height="25" as="geometry"/>
                </mxCell>
                <mxCell id="1381" value="" style="shape=partialRectangle;html=1;whiteSpace=wrap;connectable=0;fillColor=none;top=0;left=0;bottom=0;right=0;overflow=hidden;pointerEvents=1;fontStyle=1" vertex="1" parent="1380">
                    <mxGeometry width="25" height="25" as="geometry">
                        <mxRectangle width="25" height="25" as="alternateBounds"/>
                    </mxGeometry>
                </mxCell>
                <mxCell id="1382" value="" style="shape=partialRectangle;html=1;whiteSpace=wrap;connectable=0;fillColor=none;top=0;left=0;bottom=0;right=0;overflow=hidden;pointerEvents=1;fontStyle=1" vertex="1" parent="1380">
                    <mxGeometry x="25" width="25" height="25" as="geometry">
                        <mxRectangle width="25" height="25" as="alternateBounds"/>
                    </mxGeometry>
                </mxCell>
                <mxCell id="1384" style="shape=partialRectangle;html=1;whiteSpace=wrap;collapsible=0;dropTarget=0;pointerEvents=0;fillColor=none;top=0;left=0;bottom=0;right=0;points=[[0,0.5],[1,0.5]];portConstraint=eastwest;fontStyle=1" vertex="1" parent="1371">
                    <mxGeometry y="75" width="50" height="25" as="geometry"/>
                </mxCell>
                <mxCell id="1385" style="shape=partialRectangle;html=1;whiteSpace=wrap;connectable=0;fillColor=none;top=0;left=0;bottom=0;right=0;overflow=hidden;pointerEvents=1;fontStyle=1" vertex="1" parent="1384">
                    <mxGeometry width="25" height="25" as="geometry">
                        <mxRectangle width="25" height="25" as="alternateBounds"/>
                    </mxGeometry>
                </mxCell>
                <mxCell id="1386" style="shape=partialRectangle;html=1;whiteSpace=wrap;connectable=0;fillColor=none;top=0;left=0;bottom=0;right=0;overflow=hidden;pointerEvents=1;fontStyle=1" vertex="1" parent="1384">
                    <mxGeometry x="25" width="25" height="25" as="geometry">
                        <mxRectangle width="25" height="25" as="alternateBounds"/>
                    </mxGeometry>
                </mxCell>
                <object label="" placeholders="1" id="1396">
                    <mxCell style="shape=table;html=1;whiteSpace=wrap;startSize=0;container=1;collapsible=0;childLayout=tableLayout;fontStyle=1" vertex="1" parent="1">
                        <mxGeometry x="400" y="90" width="50" height="100" as="geometry"/>
                    </mxCell>
                </object>
                <mxCell id="1397" value="" style="shape=partialRectangle;html=1;whiteSpace=wrap;collapsible=0;dropTarget=0;pointerEvents=0;fillColor=none;top=0;left=0;bottom=0;right=0;points=[[0,0.5],[1,0.5]];portConstraint=eastwest;fontStyle=1" vertex="1" parent="1396">
                    <mxGeometry width="50" height="25" as="geometry"/>
                </mxCell>
                <mxCell id="1398" value="" style="shape=partialRectangle;html=1;whiteSpace=wrap;connectable=0;fillColor=none;top=0;left=0;bottom=0;right=0;overflow=hidden;pointerEvents=1;fontStyle=1" vertex="1" parent="1397">
                    <mxGeometry width="25" height="25" as="geometry">
                        <mxRectangle width="25" height="25" as="alternateBounds"/>
                    </mxGeometry>
                </mxCell>
                <mxCell id="1399" value="" style="shape=partialRectangle;html=1;whiteSpace=wrap;connectable=0;fillColor=none;top=0;left=0;bottom=0;right=0;overflow=hidden;pointerEvents=1;fontStyle=1" vertex="1" parent="1397">
                    <mxGeometry x="25" width="25" height="25" as="geometry">
                        <mxRectangle width="25" height="25" as="alternateBounds"/>
                    </mxGeometry>
                </mxCell>
                <mxCell id="1400" value="" style="shape=partialRectangle;html=1;whiteSpace=wrap;collapsible=0;dropTarget=0;pointerEvents=0;fillColor=none;top=0;left=0;bottom=0;right=0;points=[[0,0.5],[1,0.5]];portConstraint=eastwest;fontStyle=1" vertex="1" parent="1396">
                    <mxGeometry y="25" width="50" height="25" as="geometry"/>
                </mxCell>
                <mxCell id="1401" value="" style="shape=partialRectangle;html=1;whiteSpace=wrap;connectable=0;fillColor=none;top=0;left=0;bottom=0;right=0;overflow=hidden;pointerEvents=1;fontStyle=1" vertex="1" parent="1400">
                    <mxGeometry width="25" height="25" as="geometry">
                        <mxRectangle width="25" height="25" as="alternateBounds"/>
                    </mxGeometry>
                </mxCell>
                <mxCell id="1402" value="" style="shape=partialRectangle;html=1;whiteSpace=wrap;connectable=0;fillColor=none;top=0;left=0;bottom=0;right=0;overflow=hidden;pointerEvents=1;fontStyle=1" vertex="1" parent="1400">
                    <mxGeometry x="25" width="25" height="25" as="geometry">
                        <mxRectangle width="25" height="25" as="alternateBounds"/>
                    </mxGeometry>
                </mxCell>
                <mxCell id="1403" value="" style="shape=partialRectangle;html=1;whiteSpace=wrap;collapsible=0;dropTarget=0;pointerEvents=0;fillColor=none;top=0;left=0;bottom=0;right=0;points=[[0,0.5],[1,0.5]];portConstraint=eastwest;fontStyle=1" vertex="1" parent="1396">
                    <mxGeometry y="50" width="50" height="25" as="geometry"/>
                </mxCell>
                <mxCell id="1404" value="" style="shape=partialRectangle;html=1;whiteSpace=wrap;connectable=0;fillColor=none;top=0;left=0;bottom=0;right=0;overflow=hidden;pointerEvents=1;fontStyle=1" vertex="1" parent="1403">
                    <mxGeometry width="25" height="25" as="geometry">
                        <mxRectangle width="25" height="25" as="alternateBounds"/>
                    </mxGeometry>
                </mxCell>
                <mxCell id="1405" value="" style="shape=partialRectangle;html=1;whiteSpace=wrap;connectable=0;fillColor=none;top=0;left=0;bottom=0;right=0;overflow=hidden;pointerEvents=1;fontStyle=1" vertex="1" parent="1403">
                    <mxGeometry x="25" width="25" height="25" as="geometry">
                        <mxRectangle width="25" height="25" as="alternateBounds"/>
                    </mxGeometry>
                </mxCell>
                <mxCell id="1406" style="shape=partialRectangle;html=1;whiteSpace=wrap;collapsible=0;dropTarget=0;pointerEvents=0;fillColor=none;top=0;left=0;bottom=0;right=0;points=[[0,0.5],[1,0.5]];portConstraint=eastwest;fontStyle=1" vertex="1" parent="1396">
                    <mxGeometry y="75" width="50" height="25" as="geometry"/>
                </mxCell>
                <mxCell id="1407" style="shape=partialRectangle;html=1;whiteSpace=wrap;connectable=0;fillColor=none;top=0;left=0;bottom=0;right=0;overflow=hidden;pointerEvents=1;fontStyle=1" vertex="1" parent="1406">
                    <mxGeometry width="25" height="25" as="geometry">
                        <mxRectangle width="25" height="25" as="alternateBounds"/>
                    </mxGeometry>
                </mxCell>
                <mxCell id="1408" style="shape=partialRectangle;html=1;whiteSpace=wrap;connectable=0;fillColor=none;top=0;left=0;bottom=0;right=0;overflow=hidden;pointerEvents=1;fontStyle=1" vertex="1" parent="1406">
                    <mxGeometry x="25" width="25" height="25" as="geometry">
                        <mxRectangle width="25" height="25" as="alternateBounds"/>
                    </mxGeometry>
                </mxCell>
                <mxCell id="1409" value="" style="shape=cube;whiteSpace=wrap;html=1;boundedLbl=1;backgroundOutline=1;darkOpacity=0.05;darkOpacity2=0.1;size=10;" vertex="1" parent="1">
                    <mxGeometry x="165" y="90" width="30" height="30" as="geometry"/>
                </mxCell>
                <mxCell id="1426" value="" style="shape=cube;whiteSpace=wrap;html=1;boundedLbl=1;backgroundOutline=1;darkOpacity=0.05;darkOpacity2=0.1;size=10;" vertex="1" parent="1">
                    <mxGeometry x="175" y="100" width="30" height="30" as="geometry"/>
                </mxCell>
                <mxCell id="1427" value="" style="shape=cube;whiteSpace=wrap;html=1;boundedLbl=1;backgroundOutline=1;darkOpacity=0.05;darkOpacity2=0.1;size=10;" vertex="1" parent="1">
                    <mxGeometry x="185" y="110" width="30" height="30" as="geometry"/>
                </mxCell>
                <mxCell id="1428" value="" style="shape=cube;whiteSpace=wrap;html=1;boundedLbl=1;backgroundOutline=1;darkOpacity=0.05;darkOpacity2=0.1;size=10;" vertex="1" parent="1">
                    <mxGeometry x="195" y="120" width="30" height="30" as="geometry"/>
                </mxCell>
                <mxCell id="1442" value="" style="line;strokeWidth=2;direction=south;html=1;perimeter=backbonePerimeter;points=[];outlineConnect=0;rotation=44;" vertex="1" parent="1">
                    <mxGeometry x="260" y="115" width="10" height="20" as="geometry"/>
                </mxCell>
                <mxCell id="1443" value="" style="line;strokeWidth=2;direction=south;html=1;perimeter=backbonePerimeter;points=[];outlineConnect=0;rotation=-45;" vertex="1" parent="1">
                    <mxGeometry x="260" y="115" width="10" height="20" as="geometry"/>
                </mxCell>
                <mxCell id="1444" value="&lt;b style=&quot;font-size: 12px;&quot;&gt;&lt;font style=&quot;font-size: 12px;&quot;&gt;4 Filters&lt;/font&gt;&lt;/b&gt;" style="text;html=1;strokeColor=none;fillColor=none;align=center;verticalAlign=middle;whiteSpace=wrap;rounded=0;fontSize=12;" vertex="1" parent="1">
                    <mxGeometry x="283" y="115" width="20" height="30" as="geometry"/>
                </mxCell>
                <mxCell id="1445" value="Weight Tensor" style="text;html=1;strokeColor=none;fillColor=none;align=center;verticalAlign=middle;whiteSpace=wrap;rounded=0;fontSize=12;fontStyle=1" vertex="1" parent="1">
                    <mxGeometry x="154" y="190" width="132" height="30" as="geometry"/>
                </mxCell>
                <object label="" placeholders="1" id="1447">
                    <mxCell style="shape=table;html=1;whiteSpace=wrap;startSize=0;container=1;collapsible=0;childLayout=tableLayout;strokeColor=none;fontStyle=1" vertex="1" parent="1">
                        <mxGeometry x="350" y="64" width="50" height="25" as="geometry"/>
                    </mxCell>
                </object>
                <mxCell id="1448" value="" style="shape=partialRectangle;html=1;whiteSpace=wrap;collapsible=0;dropTarget=0;pointerEvents=0;fillColor=none;top=0;left=0;bottom=0;right=0;points=[[0,0.5],[1,0.5]];portConstraint=eastwest;fontStyle=1" vertex="1" parent="1447">
                    <mxGeometry width="50" height="25" as="geometry"/>
                </mxCell>
                <mxCell id="1449" value="C0" style="shape=partialRectangle;html=1;whiteSpace=wrap;connectable=0;fillColor=none;top=0;left=0;bottom=0;right=0;overflow=hidden;pointerEvents=1;fontStyle=1" vertex="1" parent="1448">
                    <mxGeometry width="25" height="25" as="geometry">
                        <mxRectangle width="25" height="25" as="alternateBounds"/>
                    </mxGeometry>
                </mxCell>
                <mxCell id="1450" value="C1" style="shape=partialRectangle;html=1;whiteSpace=wrap;connectable=0;fillColor=none;top=0;left=0;bottom=0;right=0;overflow=hidden;pointerEvents=1;fontStyle=1" vertex="1" parent="1448">
                    <mxGeometry x="25" width="25" height="25" as="geometry">
                        <mxRectangle width="25" height="25" as="alternateBounds"/>
                    </mxGeometry>
                </mxCell>
                <object label="" placeholders="1" id="1464">
                    <mxCell style="shape=table;html=1;whiteSpace=wrap;startSize=0;container=1;collapsible=0;childLayout=tableLayout;strokeColor=none;fontStyle=1" vertex="1" parent="1">
                        <mxGeometry x="400" y="64" width="50" height="25" as="geometry"/>
                    </mxCell>
                </object>
                <mxCell id="1465" value="" style="shape=partialRectangle;html=1;whiteSpace=wrap;collapsible=0;dropTarget=0;pointerEvents=0;fillColor=none;top=0;left=0;bottom=0;right=0;points=[[0,0.5],[1,0.5]];portConstraint=eastwest;fontStyle=1" vertex="1" parent="1464">
                    <mxGeometry width="50" height="25" as="geometry"/>
                </mxCell>
                <mxCell id="1466" value="C2" style="shape=partialRectangle;html=1;whiteSpace=wrap;connectable=0;fillColor=none;top=0;left=0;bottom=0;right=0;overflow=hidden;pointerEvents=1;fontStyle=1" vertex="1" parent="1465">
                    <mxGeometry width="25" height="25" as="geometry">
                        <mxRectangle width="25" height="25" as="alternateBounds"/>
                    </mxGeometry>
                </mxCell>
                <mxCell id="1467" value="C3" style="shape=partialRectangle;html=1;whiteSpace=wrap;connectable=0;fillColor=none;top=0;left=0;bottom=0;right=0;overflow=hidden;pointerEvents=1;fontStyle=1" vertex="1" parent="1465">
                    <mxGeometry x="25" width="25" height="25" as="geometry">
                        <mxRectangle width="25" height="25" as="alternateBounds"/>
                    </mxGeometry>
                </mxCell>
                <object label="" placeholders="1" id="1468">
                    <mxCell style="shape=table;html=1;whiteSpace=wrap;startSize=0;container=1;collapsible=0;childLayout=tableLayout;strokeColor=none;fontStyle=1" vertex="1" parent="1">
                        <mxGeometry x="323" y="90" width="25" height="100" as="geometry"/>
                    </mxCell>
                </object>
                <mxCell id="1469" value="" style="shape=partialRectangle;html=1;whiteSpace=wrap;collapsible=0;dropTarget=0;pointerEvents=0;fillColor=none;top=0;left=0;bottom=0;right=0;points=[[0,0.5],[1,0.5]];portConstraint=eastwest;fontStyle=1" vertex="1" parent="1468">
                    <mxGeometry width="25" height="25" as="geometry"/>
                </mxCell>
                <mxCell id="1470" value="F0" style="shape=partialRectangle;html=1;whiteSpace=wrap;connectable=0;fillColor=none;top=0;left=0;bottom=0;right=0;overflow=hidden;pointerEvents=1;fontStyle=1" vertex="1" parent="1469">
                    <mxGeometry width="25" height="25" as="geometry">
                        <mxRectangle width="25" height="25" as="alternateBounds"/>
                    </mxGeometry>
                </mxCell>
                <mxCell id="1472" style="shape=partialRectangle;html=1;whiteSpace=wrap;collapsible=0;dropTarget=0;pointerEvents=0;fillColor=none;top=0;left=0;bottom=0;right=0;points=[[0,0.5],[1,0.5]];portConstraint=eastwest;fontStyle=1" vertex="1" parent="1468">
                    <mxGeometry y="25" width="25" height="25" as="geometry"/>
                </mxCell>
                <mxCell id="1473" value="F1" style="shape=partialRectangle;html=1;whiteSpace=wrap;connectable=0;fillColor=none;top=0;left=0;bottom=0;right=0;overflow=hidden;pointerEvents=1;fontStyle=1" vertex="1" parent="1472">
                    <mxGeometry width="25" height="25" as="geometry">
                        <mxRectangle width="25" height="25" as="alternateBounds"/>
                    </mxGeometry>
                </mxCell>
                <mxCell id="1474" style="shape=partialRectangle;html=1;whiteSpace=wrap;collapsible=0;dropTarget=0;pointerEvents=0;fillColor=none;top=0;left=0;bottom=0;right=0;points=[[0,0.5],[1,0.5]];portConstraint=eastwest;fontStyle=1" vertex="1" parent="1468">
                    <mxGeometry y="50" width="25" height="25" as="geometry"/>
                </mxCell>
                <mxCell id="1475" value="F2" style="shape=partialRectangle;html=1;whiteSpace=wrap;connectable=0;fillColor=none;top=0;left=0;bottom=0;right=0;overflow=hidden;pointerEvents=1;fontStyle=1" vertex="1" parent="1474">
                    <mxGeometry width="25" height="25" as="geometry">
                        <mxRectangle width="25" height="25" as="alternateBounds"/>
                    </mxGeometry>
                </mxCell>
                <mxCell id="1476" style="shape=partialRectangle;html=1;whiteSpace=wrap;collapsible=0;dropTarget=0;pointerEvents=0;fillColor=none;top=0;left=0;bottom=0;right=0;points=[[0,0.5],[1,0.5]];portConstraint=eastwest;fontStyle=1" vertex="1" parent="1468">
                    <mxGeometry y="75" width="25" height="25" as="geometry"/>
                </mxCell>
                <mxCell id="1477" value="F3" style="shape=partialRectangle;html=1;whiteSpace=wrap;connectable=0;fillColor=none;top=0;left=0;bottom=0;right=0;overflow=hidden;pointerEvents=1;fontStyle=1" vertex="1" parent="1476">
                    <mxGeometry width="25" height="25" as="geometry">
                        <mxRectangle width="25" height="25" as="alternateBounds"/>
                    </mxGeometry>
                </mxCell>
                <object label="" placeholders="1" id="1478">
                    <mxCell style="shape=table;html=1;whiteSpace=wrap;startSize=0;container=1;collapsible=0;childLayout=tableLayout;fontStyle=1" vertex="1" parent="1">
                        <mxGeometry x="527" y="90" width="50" height="100" as="geometry"/>
                    </mxCell>
                </object>
                <mxCell id="1479" value="" style="shape=partialRectangle;html=1;whiteSpace=wrap;collapsible=0;dropTarget=0;pointerEvents=0;fillColor=none;top=0;left=0;bottom=0;right=0;points=[[0,0.5],[1,0.5]];portConstraint=eastwest;fontStyle=1" vertex="1" parent="1478">
                    <mxGeometry width="50" height="25" as="geometry"/>
                </mxCell>
                <mxCell id="1480" value="" style="shape=partialRectangle;html=1;whiteSpace=wrap;connectable=0;fillColor=none;top=0;left=0;bottom=0;right=0;overflow=hidden;pointerEvents=1;fontStyle=1" vertex="1" parent="1479">
                    <mxGeometry width="25" height="25" as="geometry">
                        <mxRectangle width="25" height="25" as="alternateBounds"/>
                    </mxGeometry>
                </mxCell>
                <mxCell id="1481" value="" style="shape=partialRectangle;html=1;whiteSpace=wrap;connectable=0;fillColor=none;top=0;left=0;bottom=0;right=0;overflow=hidden;pointerEvents=1;fontStyle=1" vertex="1" parent="1479">
                    <mxGeometry x="25" width="25" height="25" as="geometry">
                        <mxRectangle width="25" height="25" as="alternateBounds"/>
                    </mxGeometry>
                </mxCell>
                <mxCell id="1482" value="" style="shape=partialRectangle;html=1;whiteSpace=wrap;collapsible=0;dropTarget=0;pointerEvents=0;fillColor=none;top=0;left=0;bottom=0;right=0;points=[[0,0.5],[1,0.5]];portConstraint=eastwest;fontStyle=1" vertex="1" parent="1478">
                    <mxGeometry y="25" width="50" height="25" as="geometry"/>
                </mxCell>
                <mxCell id="1483" value="" style="shape=partialRectangle;html=1;whiteSpace=wrap;connectable=0;fillColor=none;top=0;left=0;bottom=0;right=0;overflow=hidden;pointerEvents=1;fontStyle=1" vertex="1" parent="1482">
                    <mxGeometry width="25" height="25" as="geometry">
                        <mxRectangle width="25" height="25" as="alternateBounds"/>
                    </mxGeometry>
                </mxCell>
                <mxCell id="1484" value="" style="shape=partialRectangle;html=1;whiteSpace=wrap;connectable=0;fillColor=none;top=0;left=0;bottom=0;right=0;overflow=hidden;pointerEvents=1;fontStyle=1" vertex="1" parent="1482">
                    <mxGeometry x="25" width="25" height="25" as="geometry">
                        <mxRectangle width="25" height="25" as="alternateBounds"/>
                    </mxGeometry>
                </mxCell>
                <mxCell id="1485" value="" style="shape=partialRectangle;html=1;whiteSpace=wrap;collapsible=0;dropTarget=0;pointerEvents=0;fillColor=none;top=0;left=0;bottom=0;right=0;points=[[0,0.5],[1,0.5]];portConstraint=eastwest;fontStyle=1" vertex="1" parent="1478">
                    <mxGeometry y="50" width="50" height="25" as="geometry"/>
                </mxCell>
                <mxCell id="1486" value="" style="shape=partialRectangle;html=1;whiteSpace=wrap;connectable=0;fillColor=none;top=0;left=0;bottom=0;right=0;overflow=hidden;pointerEvents=1;fontStyle=1" vertex="1" parent="1485">
                    <mxGeometry width="25" height="25" as="geometry">
                        <mxRectangle width="25" height="25" as="alternateBounds"/>
                    </mxGeometry>
                </mxCell>
                <mxCell id="1487" value="" style="shape=partialRectangle;html=1;whiteSpace=wrap;connectable=0;fillColor=none;top=0;left=0;bottom=0;right=0;overflow=hidden;pointerEvents=1;fontStyle=1" vertex="1" parent="1485">
                    <mxGeometry x="25" width="25" height="25" as="geometry">
                        <mxRectangle width="25" height="25" as="alternateBounds"/>
                    </mxGeometry>
                </mxCell>
                <mxCell id="1488" style="shape=partialRectangle;html=1;whiteSpace=wrap;collapsible=0;dropTarget=0;pointerEvents=0;fillColor=none;top=0;left=0;bottom=0;right=0;points=[[0,0.5],[1,0.5]];portConstraint=eastwest;fontStyle=1" vertex="1" parent="1478">
                    <mxGeometry y="75" width="50" height="25" as="geometry"/>
                </mxCell>
                <mxCell id="1489" style="shape=partialRectangle;html=1;whiteSpace=wrap;connectable=0;fillColor=none;top=0;left=0;bottom=0;right=0;overflow=hidden;pointerEvents=1;fontStyle=1" vertex="1" parent="1488">
                    <mxGeometry width="25" height="25" as="geometry">
                        <mxRectangle width="25" height="25" as="alternateBounds"/>
                    </mxGeometry>
                </mxCell>
                <mxCell id="1490" style="shape=partialRectangle;html=1;whiteSpace=wrap;connectable=0;fillColor=none;top=0;left=0;bottom=0;right=0;overflow=hidden;pointerEvents=1;fontStyle=1" vertex="1" parent="1488">
                    <mxGeometry x="25" width="25" height="25" as="geometry">
                        <mxRectangle width="25" height="25" as="alternateBounds"/>
                    </mxGeometry>
                </mxCell>
                <object label="" placeholders="1" id="1491">
                    <mxCell style="shape=table;html=1;whiteSpace=wrap;startSize=0;container=1;collapsible=0;childLayout=tableLayout;fontStyle=1" vertex="1" parent="1">
                        <mxGeometry x="610" y="90" width="50" height="100" as="geometry"/>
                    </mxCell>
                </object>
                <mxCell id="1492" value="" style="shape=partialRectangle;html=1;whiteSpace=wrap;collapsible=0;dropTarget=0;pointerEvents=0;fillColor=none;top=0;left=0;bottom=0;right=0;points=[[0,0.5],[1,0.5]];portConstraint=eastwest;fontStyle=1" vertex="1" parent="1491">
                    <mxGeometry width="50" height="25" as="geometry"/>
                </mxCell>
                <mxCell id="1493" value="" style="shape=partialRectangle;html=1;whiteSpace=wrap;connectable=0;fillColor=none;top=0;left=0;bottom=0;right=0;overflow=hidden;pointerEvents=1;fontStyle=1" vertex="1" parent="1492">
                    <mxGeometry width="25" height="25" as="geometry">
                        <mxRectangle width="25" height="25" as="alternateBounds"/>
                    </mxGeometry>
                </mxCell>
                <mxCell id="1494" value="" style="shape=partialRectangle;html=1;whiteSpace=wrap;connectable=0;fillColor=none;top=0;left=0;bottom=0;right=0;overflow=hidden;pointerEvents=1;fontStyle=1" vertex="1" parent="1492">
                    <mxGeometry x="25" width="25" height="25" as="geometry">
                        <mxRectangle width="25" height="25" as="alternateBounds"/>
                    </mxGeometry>
                </mxCell>
                <mxCell id="1495" value="" style="shape=partialRectangle;html=1;whiteSpace=wrap;collapsible=0;dropTarget=0;pointerEvents=0;fillColor=none;top=0;left=0;bottom=0;right=0;points=[[0,0.5],[1,0.5]];portConstraint=eastwest;fontStyle=1" vertex="1" parent="1491">
                    <mxGeometry y="25" width="50" height="25" as="geometry"/>
                </mxCell>
                <mxCell id="1496" value="" style="shape=partialRectangle;html=1;whiteSpace=wrap;connectable=0;fillColor=none;top=0;left=0;bottom=0;right=0;overflow=hidden;pointerEvents=1;fontStyle=1" vertex="1" parent="1495">
                    <mxGeometry width="25" height="25" as="geometry">
                        <mxRectangle width="25" height="25" as="alternateBounds"/>
                    </mxGeometry>
                </mxCell>
                <mxCell id="1497" value="" style="shape=partialRectangle;html=1;whiteSpace=wrap;connectable=0;fillColor=none;top=0;left=0;bottom=0;right=0;overflow=hidden;pointerEvents=1;fontStyle=1" vertex="1" parent="1495">
                    <mxGeometry x="25" width="25" height="25" as="geometry">
                        <mxRectangle width="25" height="25" as="alternateBounds"/>
                    </mxGeometry>
                </mxCell>
                <mxCell id="1498" value="" style="shape=partialRectangle;html=1;whiteSpace=wrap;collapsible=0;dropTarget=0;pointerEvents=0;fillColor=none;top=0;left=0;bottom=0;right=0;points=[[0,0.5],[1,0.5]];portConstraint=eastwest;fontStyle=1" vertex="1" parent="1491">
                    <mxGeometry y="50" width="50" height="25" as="geometry"/>
                </mxCell>
                <mxCell id="1499" value="" style="shape=partialRectangle;html=1;whiteSpace=wrap;connectable=0;fillColor=none;top=0;left=0;bottom=0;right=0;overflow=hidden;pointerEvents=1;fontStyle=1" vertex="1" parent="1498">
                    <mxGeometry width="25" height="25" as="geometry">
                        <mxRectangle width="25" height="25" as="alternateBounds"/>
                    </mxGeometry>
                </mxCell>
                <mxCell id="1500" value="" style="shape=partialRectangle;html=1;whiteSpace=wrap;connectable=0;fillColor=none;top=0;left=0;bottom=0;right=0;overflow=hidden;pointerEvents=1;fontStyle=1" vertex="1" parent="1498">
                    <mxGeometry x="25" width="25" height="25" as="geometry">
                        <mxRectangle width="25" height="25" as="alternateBounds"/>
                    </mxGeometry>
                </mxCell>
                <mxCell id="1501" style="shape=partialRectangle;html=1;whiteSpace=wrap;collapsible=0;dropTarget=0;pointerEvents=0;fillColor=none;top=0;left=0;bottom=0;right=0;points=[[0,0.5],[1,0.5]];portConstraint=eastwest;fontStyle=1" vertex="1" parent="1491">
                    <mxGeometry y="75" width="50" height="25" as="geometry"/>
                </mxCell>
                <mxCell id="1502" style="shape=partialRectangle;html=1;whiteSpace=wrap;connectable=0;fillColor=none;top=0;left=0;bottom=0;right=0;overflow=hidden;pointerEvents=1;fontStyle=1" vertex="1" parent="1501">
                    <mxGeometry width="25" height="25" as="geometry">
                        <mxRectangle width="25" height="25" as="alternateBounds"/>
                    </mxGeometry>
                </mxCell>
                <mxCell id="1503" style="shape=partialRectangle;html=1;whiteSpace=wrap;connectable=0;fillColor=none;top=0;left=0;bottom=0;right=0;overflow=hidden;pointerEvents=1;fontStyle=1" vertex="1" parent="1501">
                    <mxGeometry x="25" width="25" height="25" as="geometry">
                        <mxRectangle width="25" height="25" as="alternateBounds"/>
                    </mxGeometry>
                </mxCell>
                <object label="" placeholders="1" id="1504">
                    <mxCell style="shape=table;html=1;whiteSpace=wrap;startSize=0;container=1;collapsible=0;childLayout=tableLayout;strokeColor=none;fontStyle=1" vertex="1" parent="1">
                        <mxGeometry x="527" y="64" width="50" height="25" as="geometry"/>
                    </mxCell>
                </object>
                <mxCell id="1505" value="" style="shape=partialRectangle;html=1;whiteSpace=wrap;collapsible=0;dropTarget=0;pointerEvents=0;fillColor=none;top=0;left=0;bottom=0;right=0;points=[[0,0.5],[1,0.5]];portConstraint=eastwest;fontStyle=1" vertex="1" parent="1504">
                    <mxGeometry width="50" height="25" as="geometry"/>
                </mxCell>
                <mxCell id="1506" value="C0" style="shape=partialRectangle;html=1;whiteSpace=wrap;connectable=0;fillColor=none;top=0;left=0;bottom=0;right=0;overflow=hidden;pointerEvents=1;fontStyle=1" vertex="1" parent="1505">
                    <mxGeometry width="25" height="25" as="geometry">
                        <mxRectangle width="25" height="25" as="alternateBounds"/>
                    </mxGeometry>
                </mxCell>
                <mxCell id="1507" value="C1" style="shape=partialRectangle;html=1;whiteSpace=wrap;connectable=0;fillColor=none;top=0;left=0;bottom=0;right=0;overflow=hidden;pointerEvents=1;fontStyle=1" vertex="1" parent="1505">
                    <mxGeometry x="25" width="25" height="25" as="geometry">
                        <mxRectangle width="25" height="25" as="alternateBounds"/>
                    </mxGeometry>
                </mxCell>
                <object label="" placeholders="1" id="1508">
                    <mxCell style="shape=table;html=1;whiteSpace=wrap;startSize=0;container=1;collapsible=0;childLayout=tableLayout;strokeColor=none;fontStyle=1" vertex="1" parent="1">
                        <mxGeometry x="610" y="64" width="50" height="25" as="geometry"/>
                    </mxCell>
                </object>
                <mxCell id="1509" value="" style="shape=partialRectangle;html=1;whiteSpace=wrap;collapsible=0;dropTarget=0;pointerEvents=0;fillColor=none;top=0;left=0;bottom=0;right=0;points=[[0,0.5],[1,0.5]];portConstraint=eastwest;fontStyle=1" vertex="1" parent="1508">
                    <mxGeometry width="50" height="25" as="geometry"/>
                </mxCell>
                <mxCell id="1510" value="C2" style="shape=partialRectangle;html=1;whiteSpace=wrap;connectable=0;fillColor=none;top=0;left=0;bottom=0;right=0;overflow=hidden;pointerEvents=1;fontStyle=1" vertex="1" parent="1509">
                    <mxGeometry width="25" height="25" as="geometry">
                        <mxRectangle width="25" height="25" as="alternateBounds"/>
                    </mxGeometry>
                </mxCell>
                <mxCell id="1511" value="C3" style="shape=partialRectangle;html=1;whiteSpace=wrap;connectable=0;fillColor=none;top=0;left=0;bottom=0;right=0;overflow=hidden;pointerEvents=1;fontStyle=1" vertex="1" parent="1509">
                    <mxGeometry x="25" width="25" height="25" as="geometry">
                        <mxRectangle width="25" height="25" as="alternateBounds"/>
                    </mxGeometry>
                </mxCell>
                <object label="" placeholders="1" id="1512">
                    <mxCell style="shape=table;html=1;whiteSpace=wrap;startSize=0;container=1;collapsible=0;childLayout=tableLayout;strokeColor=none;fontStyle=1" vertex="1" parent="1">
                        <mxGeometry x="500" y="90" width="25" height="100" as="geometry"/>
                    </mxCell>
                </object>
                <mxCell id="1513" value="" style="shape=partialRectangle;html=1;whiteSpace=wrap;collapsible=0;dropTarget=0;pointerEvents=0;fillColor=none;top=0;left=0;bottom=0;right=0;points=[[0,0.5],[1,0.5]];portConstraint=eastwest;fontStyle=1" vertex="1" parent="1512">
                    <mxGeometry width="25" height="25" as="geometry"/>
                </mxCell>
                <mxCell id="1514" value="F0" style="shape=partialRectangle;html=1;whiteSpace=wrap;connectable=0;fillColor=none;top=0;left=0;bottom=0;right=0;overflow=hidden;pointerEvents=1;fontStyle=1" vertex="1" parent="1513">
                    <mxGeometry width="25" height="25" as="geometry">
                        <mxRectangle width="25" height="25" as="alternateBounds"/>
                    </mxGeometry>
                </mxCell>
                <mxCell id="1515" style="shape=partialRectangle;html=1;whiteSpace=wrap;collapsible=0;dropTarget=0;pointerEvents=0;fillColor=none;top=0;left=0;bottom=0;right=0;points=[[0,0.5],[1,0.5]];portConstraint=eastwest;fontStyle=1" vertex="1" parent="1512">
                    <mxGeometry y="25" width="25" height="25" as="geometry"/>
                </mxCell>
                <mxCell id="1516" value="F1" style="shape=partialRectangle;html=1;whiteSpace=wrap;connectable=0;fillColor=none;top=0;left=0;bottom=0;right=0;overflow=hidden;pointerEvents=1;fontStyle=1" vertex="1" parent="1515">
                    <mxGeometry width="25" height="25" as="geometry">
                        <mxRectangle width="25" height="25" as="alternateBounds"/>
                    </mxGeometry>
                </mxCell>
                <mxCell id="1517" style="shape=partialRectangle;html=1;whiteSpace=wrap;collapsible=0;dropTarget=0;pointerEvents=0;fillColor=none;top=0;left=0;bottom=0;right=0;points=[[0,0.5],[1,0.5]];portConstraint=eastwest;fontStyle=1" vertex="1" parent="1512">
                    <mxGeometry y="50" width="25" height="25" as="geometry"/>
                </mxCell>
                <mxCell id="1518" value="F2" style="shape=partialRectangle;html=1;whiteSpace=wrap;connectable=0;fillColor=none;top=0;left=0;bottom=0;right=0;overflow=hidden;pointerEvents=1;fontStyle=1" vertex="1" parent="1517">
                    <mxGeometry width="25" height="25" as="geometry">
                        <mxRectangle width="25" height="25" as="alternateBounds"/>
                    </mxGeometry>
                </mxCell>
                <mxCell id="1519" style="shape=partialRectangle;html=1;whiteSpace=wrap;collapsible=0;dropTarget=0;pointerEvents=0;fillColor=none;top=0;left=0;bottom=0;right=0;points=[[0,0.5],[1,0.5]];portConstraint=eastwest;fontStyle=1" vertex="1" parent="1512">
                    <mxGeometry y="75" width="25" height="25" as="geometry"/>
                </mxCell>
                <mxCell id="1520" value="F3" style="shape=partialRectangle;html=1;whiteSpace=wrap;connectable=0;fillColor=none;top=0;left=0;bottom=0;right=0;overflow=hidden;pointerEvents=1;fontStyle=1" vertex="1" parent="1519">
                    <mxGeometry width="25" height="25" as="geometry">
                        <mxRectangle width="25" height="25" as="alternateBounds"/>
                    </mxGeometry>
                </mxCell>
                <mxCell id="1521" value="" style="endArrow=classic;html=1;fontSize=12;curved=1;" edge="1" parent="1">
                    <mxGeometry width="50" height="50" relative="1" as="geometry">
                        <mxPoint x="250" y="100" as="sourcePoint"/>
                        <mxPoint x="340" y="80" as="targetPoint"/>
                        <Array as="points">
                            <mxPoint x="300" y="50"/>
                        </Array>
                    </mxGeometry>
                </mxCell>
                <mxCell id="1522" value="" style="endArrow=classic;html=1;fontSize=12;curved=1;" edge="1" parent="1">
                    <mxGeometry width="50" height="50" relative="1" as="geometry">
                        <mxPoint x="460" y="80" as="sourcePoint"/>
                        <mxPoint x="520" y="80" as="targetPoint"/>
                        <Array as="points">
                            <mxPoint x="490" y="50"/>
                        </Array>
                    </mxGeometry>
                </mxCell>
                <mxCell id="1524" value="" style="endArrow=none;dashed=1;html=1;fontSize=12;curved=1;" edge="1" parent="1">
                    <mxGeometry width="50" height="50" relative="1" as="geometry">
                        <mxPoint x="593" y="195" as="sourcePoint"/>
                        <mxPoint x="593" y="85" as="targetPoint"/>
                    </mxGeometry>
                </mxCell>
                <mxCell id="1525" style="edgeStyle=none;curved=1;html=1;entryX=-0.007;entryY=-0.007;entryDx=0;entryDy=0;fontSize=12;entryPerimeter=0;exitX=0.997;exitY=0.002;exitDx=0;exitDy=0;exitPerimeter=0;" edge="1" parent="1">
                    <mxGeometry relative="1" as="geometry">
                        <mxPoint x="576.8500000000001" y="140.04999999999995" as="sourcePoint"/>
                        <mxPoint x="609.6500000000001" y="139.825" as="targetPoint"/>
                        <Array as="points">
                            <mxPoint x="590" y="130"/>
                        </Array>
                    </mxGeometry>
                </mxCell>
                <mxCell id="1527" value="Tiled Representation&lt;br&gt;of Weight Tensor" style="text;html=1;strokeColor=none;fillColor=none;align=center;verticalAlign=middle;whiteSpace=wrap;rounded=0;fontSize=12;fontStyle=1" vertex="1" parent="1">
                    <mxGeometry x="330" y="200" width="132" height="30" as="geometry"/>
                </mxCell>
                <mxCell id="1528" value="Decomposition of Weight Tiles with additional bias load" style="text;html=1;strokeColor=none;fillColor=none;align=center;verticalAlign=middle;whiteSpace=wrap;rounded=0;fontSize=12;fontStyle=1" vertex="1" parent="1">
                    <mxGeometry x="525" y="210" width="132" height="30" as="geometry"/>
                </mxCell>
                <mxCell id="1529" value="C0" style="text;strokeColor=none;fillColor=none;html=1;fontSize=12;fontStyle=1;verticalAlign=middle;align=center;" vertex="1" parent="1">
                    <mxGeometry x="180" y="160" width="20" height="20" as="geometry"/>
                </mxCell>
                <mxCell id="1530" value="C1" style="text;strokeColor=none;fillColor=none;html=1;fontSize=12;fontStyle=1;verticalAlign=middle;align=center;" vertex="1" parent="1">
                    <mxGeometry x="170" y="150" width="20" height="20" as="geometry"/>
                </mxCell>
                <mxCell id="1531" value="C2" style="text;strokeColor=none;fillColor=none;html=1;fontSize=12;fontStyle=1;verticalAlign=middle;align=center;" vertex="1" parent="1">
                    <mxGeometry x="165" y="140" width="10" height="20" as="geometry"/>
                </mxCell>
                <mxCell id="1533" value="C3" style="text;strokeColor=none;fillColor=none;html=1;fontSize=12;fontStyle=1;verticalAlign=middle;align=center;" vertex="1" parent="1">
                    <mxGeometry x="150" y="130" width="20" height="20" as="geometry"/>
                </mxCell>
            </root>
        </mxGraphModel>
    </diagram>
</mxfile>